<?xml version="1.0" encoding="UTF-8"?>
<svg xmlns="http://www.w3.org/2000/svg" xmlns:xlink="http://www.w3.org/1999/xlink" width="2626" height="2626" viewBox="0 0 2626 2626">
<path fill-rule="nonzero" fill="rgb(0%, 0%, 0%)" fill-opacity="1" d="M 66.511719 8.878906 C 33.421875 31.5 6.507812 58.410156 2.535156 72.660156 C -0.554688 84.199219 -0.332031 86.460938 5.84375 99.359375 C 13.785156 115.410156 45.113281 145.949219 116.148438 206.339844 C 149.019531 234.390625 184.539062 265.828125 195.347656 276.460938 C 244.324219 324.640625 1006.308594 1142.550781 1130.949219 1280.75 C 1169.558594 1323.730469 1204.191406 1362.179688 1207.730469 1366.03125 L 1214.570312 1373.488281 L 991.75 1601.269531 C 782.390625 1815.699219 601.050781 2003.664062 541.925781 2067.902344 C 509.277344 2103.414062 486.996094 2130.554688 419.488281 2216.960938 C 331.683594 2329.605469 295.285156 2369.1875 264.839844 2385.699219 C 249.617188 2393.84375 248.292969 2394.070312 231.96875 2393.164062 C 201.964844 2391.355469 179.242188 2375.296875 166.226562 2346.570312 C 160.492188 2334.128906 160.269531 2332.320312 160.050781 2289.570312 C 159.828125 2249.308594 159.386719 2244.332031 154.753906 2232.117188 C 148.136719 2214.246094 133.136719 2198.867188 118.796875 2194.796875 C 98.28125 2188.914062 72.027344 2195.019531 53.273438 2210.402344 C 22.832031 2235.285156 -1.214844 2308.34375 3.636719 2361.5 C 11.359375 2445.640625 82.175781 2524.582031 165.566406 2541.773438 C 189.390625 2546.75 269.03125 2545.390625 291.09375 2539.738281 C 313.816406 2533.855469 338.523438 2523 360.363281 2509.652344 C 416.398438 2475.046875 460.078125 2432.75 584.0625 2292.960938 C 774.449219 2078.078125 1309.871094 1484.328125 1312.960938 1484.328125 C 1314.71875 1484.328125 1390.828125 1568.238281 1576.140625 1773.851562 C 1645.640625 1851.210938 1680.050781 1891.019531 1678.511719 1892.152344 C 1676.738281 1893.28125 1676.96875 1893.734375 1679.390625 1893.28125 C 1682.921875 1892.601562 1716.671875 1929.472656 1897.570312 2131.234375 C 1938.390625 2176.699219 2003.25 2249.308594 2041.851562 2292.960938 C 2165.839844 2432.75 2209.519531 2475.046875 2265.550781 2509.652344 C 2287.390625 2523 2312.101562 2533.855469 2334.820312 2539.738281 C 2356.878906 2545.390625 2436.519531 2546.75 2460.351562 2541.773438 C 2543.738281 2524.582031 2614.558594 2445.640625 2622.28125 2361.5 C 2627.128906 2308.34375 2603.089844 2235.285156 2572.640625 2210.402344 C 2553.890625 2195.019531 2527.640625 2188.914062 2507.121094 2194.796875 C 2492.78125 2198.867188 2477.78125 2214.246094 2471.160156 2232.117188 C 2466.53125 2244.332031 2466.089844 2249.308594 2465.859375 2289.570312 C 2465.640625 2332.320312 2465.421875 2334.128906 2459.691406 2346.570312 C 2446.671875 2375.296875 2423.949219 2391.355469 2393.949219 2393.164062 C 2377.621094 2394.070312 2376.300781 2393.84375 2361.070312 2385.699219 C 2330.628906 2369.1875 2294.890625 2330.285156 2206.429688 2217.1875 C 2138.261719 2129.878906 2116.421875 2103.1875 2083.988281 2067.902344 C 2024.871094 2003.664062 1843.519531 1815.699219 1634.160156 1601.269531 L 1411.351562 1373.488281 L 1418.191406 1366.03125 C 1421.71875 1362.179688 1456.359375 1323.730469 1494.960938 1280.75 C 1619.609375 1142.550781 2381.589844 324.640625 2430.570312 276.460938 C 2441.378906 265.828125 2477.121094 234.390625 2509.769531 206.339844 C 2580.800781 145.949219 2612.128906 115.410156 2620.070312 99.359375 C 2623.160156 93.019531 2625.589844 86.230469 2625.589844 84.429688 C 2625.589844 68.820312 2613.890625 52.53125 2587.199219 30.371094 C 2544.398438 -5.371094 2534.699219 -7.410156 2510.648438 15.660156 C 2496.089844 29.460938 2477.78125 57.960938 2468.070312 81.480469 C 2462.78125 94.828125 2455.941406 105.910156 2444.46875 119.941406 C 2420.640625 149.121094 2209.960938 364.449219 2047.589844 525.269531 C 1879.699219 691.75 1788.371094 784.941406 1705.421875 874.738281 C 1671.890625 910.699219 1613.429688 971.320312 1575.261719 1009.320312 C 1537.101562 1047.101562 1462.53125 1121.738281 1409.359375 1175.121094 L 1312.738281 1272.160156 L 1249.421875 1208.148438 C 1214.570312 1172.859375 1140 1097.988281 1083.738281 1042.121094 C 1027.269531 986.03125 954.023438 910.699219 920.492188 874.738281 C 837.765625 785.171875 746.429688 691.980469 578.328125 525.269531 C 415.957031 364.449219 205.277344 149.121094 181.449219 119.941406 C 169.976562 105.910156 163.140625 94.828125 157.84375 81.480469 C 148.136719 57.960938 129.828125 29.460938 115.265625 15.660156 C 96.515625 -2.429688 85.261719 -4.019531 66.511719 8.878906 Z M 66.511719 8.878906 "/>
<path fill-rule="nonzero" fill="rgb(0%, 0%, 0%)" fill-opacity="1" d="M 1302.589844 2242.519531 C 1224.929688 2249.082031 1156.988281 2310.378906 1138.460938 2390.222656 C 1132.28125 2417.367188 1133.378906 2463.285156 1140.878906 2487.488281 C 1157.871094 2542.226562 1194.929688 2586.105469 1243.25 2608.5 C 1310.96875 2640.167969 1393.480469 2626.59375 1447.96875 2574.796875 C 1538.859375 2488.390625 1525.410156 2338.878906 1420.179688 2270.34375 C 1386.199219 2248.175781 1346.269531 2238.675781 1302.589844 2242.519531 Z M 1302.589844 2242.519531 "/>
</svg>
